<svg xmlns="http://www.w3.org/2000/svg" width="432" height="432" xml:space="preserve"><switch><g><path d="m364.004 318.068 35.257 3.734-20.865-28.663-24.619-2.612-3.327-1.919 18.34-4.913a4.343 4.343 0 0 0-2.251-8.392l-26.729 7.161-32.957-19.027 7.225-1.937 23.961 13.837a4.343 4.343 0 1 0 4.344-7.52l-16.444-9.49 3.717-.994 24.455 3.85 27.57-22.288-35.023-5.52-19.25 15.565-3.714.994 9.493-16.444a4.333 4.333 0 0 0-1.589-5.924 4.344 4.344 0 0 0-5.934 1.583l-13.834 23.964-15.611 4.185-64.008-36.951 32.818-.006 19.565 19.565a4.341 4.341 0 0 0 6.145 0 4.337 4.337 0 0 0 0-6.139l-13.421-13.427h3.838l22.625 10.052L336.185 216l-32.405-14.394-22.625 10.051h-3.838l13.421-13.425a4.338 4.338 0 0 0 0-6.14 4.344 4.344 0 0 0-6.145-.001l-19.565 19.566H232.21l64.008-36.956 15.611 4.184 13.834 23.962a4.342 4.342 0 0 0 5.934 1.588 4.341 4.341 0 0 0 1.589-5.931l-9.493-16.439 3.714.994 19.25 15.564 35.023-5.517-27.57-22.289-24.455 3.851-3.717-.994 16.444-9.494a4.343 4.343 0 1 0-4.344-7.521l-23.961 13.834-7.225-1.935 32.957-19.027 26.729 7.161a4.341 4.341 0 1 0 2.251-8.388l-18.343-4.916 3.33-1.92 24.619-2.608 20.865-28.666-35.257 3.734-14.571 20.016-3.329 1.922 4.912-18.338a4.336 4.336 0 0 0-3.068-5.316 4.338 4.338 0 0 0-5.318 3.071l-7.161 26.725-32.957 19.029 1.937-7.222 23.963-13.833a4.345 4.345 0 1 0-4.346-7.524l-16.438 9.492.994-3.709 15.565-19.253-5.52-35.025-22.291 27.573 3.853 24.457-.994 3.711-9.49-16.441a4.34 4.34 0 0 0-5.931-1.591 4.343 4.343 0 0 0-1.592 5.935l13.834 23.961-4.185 15.611-64.002 36.954 16.41-28.421 26.726-7.162c2.313-.621 3.688-3.001 3.069-5.319s-3-3.693-5.317-3.07l-18.34 4.911 1.922-3.323 20.019-14.571 3.734-35.257-28.666 20.864-2.609 24.621-1.919 3.325-4.913-18.338a4.338 4.338 0 0 0-5.317-3.068 4.344 4.344 0 0 0-3.075 5.318l7.161 26.728-16.412 28.426v-73.912l11.434-11.43h27.671a4.342 4.342 0 0 0 0-8.685h-18.987l2.717-2.715 23.105-8.891 12.736-33.091-33.091 12.734-8.895 23.107-2.717 2.715V80.64a4.344 4.344 0 0 0-8.685 0v27.671l-5.289 5.287V75.542l19.568-19.563a4.342 4.342 0 0 0 0-6.141 4.34 4.34 0 0 0-6.142 0L220.34 63.26v-3.841l10.055-22.627L215.998 4.39l-14.395 32.402 10.051 22.624v3.844l-13.422-13.422a4.338 4.338 0 0 0-6.141 0 4.34 4.34 0 0 0 0 6.141l19.563 19.563v38.057l-5.284-5.287V80.64a4.343 4.343 0 0 0-8.684 0v18.986l-2.718-2.715-8.893-23.107-33.089-12.734 12.733 33.091 23.107 8.891 2.715 2.715h-18.985a4.343 4.343 0 0 0 .001 8.685h27.668l11.428 11.43v73.906l-16.408-28.42 7.162-26.728a4.341 4.341 0 0 0-3.072-5.318 4.338 4.338 0 0 0-5.317 3.068l-4.913 18.338-1.922-3.327-2.608-24.62-28.665-20.861 3.735 35.257 20.016 14.571 1.922 3.323-18.338-4.911a4.34 4.34 0 0 0-5.319 3.07 4.344 4.344 0 0 0 3.072 5.319l26.727 7.162 16.412 28.426-64.011-36.956-4.184-15.614 13.837-23.962a4.344 4.344 0 0 0-7.523-4.342l-9.492 16.441-.994-3.711 3.854-24.457-22.292-27.573-5.517 35.025 15.564 19.253.994 3.709-16.439-9.492a4.344 4.344 0 1 0-4.343 7.524l23.96 13.833 1.937 7.222-32.957-19.026-7.162-26.728a4.341 4.341 0 0 0-5.319-3.071 4.345 4.345 0 0 0-3.071 5.319l4.915 18.335-3.329-1.919-14.568-20.017-35.258-3.734 20.864 28.667 24.62 2.608 3.326 1.919-18.338 4.916a4.344 4.344 0 0 0-3.07 5.319 4.344 4.344 0 0 0 5.32 3.069l26.728-7.161 32.957 19.027-7.223 1.938-23.964-13.837a4.344 4.344 0 0 0-4.343 7.523l16.441 9.492-3.708.994-24.458-3.851-27.571 22.288 35.023 5.517 19.252-15.564 3.71-.994-9.492 16.439a4.344 4.344 0 1 0 7.523 4.342l13.834-23.962 15.612-4.182 64.008 36.951h-32.82l-19.566-19.563a4.342 4.342 0 0 0-6.141 0 4.338 4.338 0 0 0 0 6.141l13.424 13.422h-3.842l-22.625-10.048L95.819 216l32.401 14.392 22.625-10.046h3.844l-13.425 13.421a4.336 4.336 0 0 0 0 6.139 4.337 4.337 0 0 0 6.141 0l19.566-19.56 32.82-.006-64.005 36.957-15.615-4.185-13.834-23.964a4.343 4.343 0 0 0-5.934-1.583 4.331 4.331 0 0 0-1.589 5.924l9.492 16.444-3.71-.994-19.252-15.565-35.023 5.52 27.572 22.288 24.455-3.85 3.712.994-16.442 9.49a4.341 4.341 0 1 0 4.343 7.52l23.965-13.837 7.222 1.942-32.959 19.029-26.728-7.167a4.348 4.348 0 0 0-5.32 3.075 4.342 4.342 0 0 0 3.07 5.317l18.338 4.913-3.326 1.925-24.62 2.606-20.864 28.663 35.258-3.734 14.568-20.016 3.329-1.919-4.915 18.34a4.345 4.345 0 0 0 3.071 5.317 4.348 4.348 0 0 0 5.319-3.075l7.162-26.727 32.957-19.027-1.937 7.225-23.96 13.832a4.346 4.346 0 0 0-1.591 5.936 4.348 4.348 0 0 0 5.933 1.59l16.439-9.497-.994 3.711-15.564 19.253 5.517 35.026 22.292-27.57-3.854-24.46.994-3.711 9.492 16.443a4.348 4.348 0 0 0 5.932 1.59 4.34 4.34 0 0 0 1.591-5.931l-13.837-23.963 4.184-15.612 64.011-36.956-16.412 28.42-26.727 7.167a4.341 4.341 0 1 0 2.247 8.386l18.338-4.913-1.922 3.323-20.016 14.571-3.735 35.264 28.666-20.866 2.608-24.622 1.922-3.329 4.913 18.34a4.336 4.336 0 0 0 5.317 3.068 4.339 4.339 0 0 0 3.072-5.317l-7.162-26.727 16.411-28.426v73.908l-11.431 11.433h-27.668a4.345 4.345 0 0 0-.001 8.688h18.985l-2.715 2.711-23.107 8.896-12.733 33.09 33.089-12.733 8.893-23.107 2.718-2.717v18.987a4.342 4.342 0 0 0 8.684 0v-27.669l5.287-5.295v38.062l-19.566 19.564a4.347 4.347 0 0 0 0 6.145 4.347 4.347 0 0 0 6.141 0l13.425-13.427v3.844l-10.054 22.622L216 427.609l14.395-32.402-10.052-22.622v-3.844l13.424 13.427a4.349 4.349 0 0 0 6.142 0 4.347 4.347 0 0 0 0-6.145l-19.565-19.564v-38.062l5.286 5.295v27.669c0 2.393 1.945 4.34 4.344 4.34s4.344-1.947 4.341-4.34v-18.987l2.717 2.717 8.895 23.107 33.091 12.733-12.736-33.09-23.105-8.896-2.717-2.711h18.987a4.347 4.347 0 0 0 4.341-4.347 4.342 4.342 0 0 0-4.341-4.341h-27.671l-11.431-11.433v-73.908l16.409 28.426-7.161 26.727a4.342 4.342 0 0 0 3.072 5.317 4.337 4.337 0 0 0 5.32-3.068l4.913-18.334 1.919 3.323 2.609 24.622 28.666 20.866-3.734-35.264-20.019-14.571-1.922-3.323 18.34 4.913a4.336 4.336 0 0 0 5.317-3.069 4.344 4.344 0 0 0-3.069-5.317l-26.726-7.167-16.41-28.42 64.002 36.951 4.185 15.617-13.834 23.963a4.338 4.338 0 0 0 1.592 5.931 4.346 4.346 0 0 0 5.931-1.59l9.49-16.443.994 3.711-3.853 24.46 22.291 27.57 5.52-35.026-15.565-19.253-.994-3.711 16.438 9.497a4.352 4.352 0 0 0 5.936-1.59 4.35 4.35 0 0 0-1.59-5.936l-23.963-13.832-1.937-7.225 32.957 19.027 7.161 26.727a4.337 4.337 0 0 0 5.318 3.069 4.335 4.335 0 0 0 3.071-5.312l-4.91-18.34 3.324 1.919 14.571 20.018z"/></g></switch></svg>
