<svg xmlns="http://www.w3.org/2000/svg" viewBox="0 0 297 297" style="enable-background:new 0 0 297 297" xml:space="preserve"><path d="M289.5 141.5h-11.732l8.986-9.283a7.5 7.5 0 0 0-.172-10.605 7.498 7.498 0 0 0-10.605.172L256.89 141.5h-13.918l8.842-9.346a7.499 7.499 0 0 0-.294-10.602 7.499 7.499 0 0 0-10.602.294L222.321 141.5h-12.853l16.607-18.014a7.463 7.463 0 0 0 1.977-5.114c.001-.046.008-.09.008-.136.031-4.142-3.3-7.346-7.442-7.379l-22.961-.201 8.155-8.156H232.5c4.143 0 7.5-3.357 7.5-7.5s-3.357-7.5-7.5-7.5h-11.686l10-10H257.5c4.143 0 7.5-3.357 7.5-7.5s-3.357-7.5-7.5-7.5h-11.686l8.045-8.045a7.5 7.5 0 0 0-10.607-10.607l-8.294 8.294-.212-13.09c-.066-4.1-3.411-7.552-7.496-7.552h-.125c-4.142 0-7.444 3.698-7.377 7.84l.444 27.567-9.842 9.842-.355-12.859c-.114-4.141-3.558-7.375-7.704-7.29a7.5 7.5 0 0 0-7.29 7.704l.748 27.047-8.613 8.613-.241-22.409a7.47 7.47 0 0 0-1.879-5.942c-2.783-3.071-7.691-3.304-10.76-.525l-19.088 17.137V74.178l19.821-18.595c3.009-2.847 3.224-7.594.377-10.603-2.848-3.01-7.72-3.141-10.727-.294l-9.471 8.842V39.609l19.883-19.086c2.976-2.881 3.136-7.629.255-10.605-2.879-2.975-7.752-3.055-10.73-.172l-9.408 8.986V7.5c0-4.143-3.357-7.5-7.5-7.5a7.499 7.499 0 0 0-7.5 7.5v10.528l-8.03-8.196a7.4 7.4 0 0 0-10.523-.001c-2.93 2.929-3.055 7.678-.126 10.606l18.679 18.805v13.786l-8.03-8.196a7.4 7.4 0 0 0-10.523-.001c-2.93 2.929-3.055 7.678-.126 10.606l18.679 18.805v13.02l-16.711-16.319a7.395 7.395 0 0 0-10.521.179c-1.658 1.714-2.287 4.015-1.995 6.207l-.704 21.825-8.068-7.923V64.5c0-4.143-3.357-7.5-7.5-7.5s-7.5 3.357-7.5 7.5v11.73l-10-10V39.5c0-4.143-3.357-7.5-7.5-7.5s-7.5 3.357-7.5 7.5v11.73l-7.876-8.043a7.402 7.402 0 0 0-10.524 0c-2.929 2.93-2.887 7.678.042 10.607l8.132 8.111-12.723.292c-4.142.067-7.439 3.683-7.372 7.823.066 4.1 3.416 7.479 7.502 7.479h.124l27.476-.605 9.802 9.802-12.859.356a7.5 7.5 0 1 0 .414 14.994l27.047-.749 9.433 9.434-23.242.52c-2.053.057-4.567.588-6.274 2.212a7.499 7.499 0 0 0-.269 10.603l.154.162c.16.186.327.361.503.529L87.573 141.5H74.179l-18.596-19.654a7.498 7.498 0 0 0-10.603-.294 7.499 7.499 0 0 0-.294 10.602l8.842 9.346H39.61l-19.087-19.717a7.498 7.498 0 0 0-10.605-.172 7.5 7.5 0 0 0-.172 10.605l8.986 9.283H7.5c-4.143 0-7.5 3.357-7.5 7.5s3.357 7.5 7.5 7.5h10.528l-8.196 8.196a7.498 7.498 0 0 0-.001 10.606 7.476 7.476 0 0 0 5.304 2.197 7.477 7.477 0 0 0 5.303-2.196L39.242 156.5h13.786l-8.196 8.196a7.498 7.498 0 0 0-.001 10.606 7.476 7.476 0 0 0 5.304 2.197 7.477 7.477 0 0 0 5.303-2.196L74.242 156.5H87.43l-16.254 16.898a7.5 7.5 0 0 0 .206 10.604 7.463 7.463 0 0 0 4.952 2.083c.038.002.073.008.111.009l23.938.622-9.387 9.387-27.046-.749c-4.146-.085-7.591 3.149-7.705 7.289a7.5 7.5 0 0 0 7.289 7.705l12.86.356-10.06 10.06-27.22-.265h-.124c-4.086 0-7.431 3.055-7.497 7.154-.067 4.142 3.235 7.33 7.377 7.398l12.985.19-8.009 8.009a7.5 7.5 0 0 0 5.304 12.803c1.919 0 3.672-.732 5.137-2.196l6.878-7.045V258.5c0 4.143 3.357 7.5 7.5 7.5s7.5-3.357 7.5-7.5v-26.686l10-10V233.5c0 4.143 3.357 7.5 7.5 7.5s7.5-3.357 7.5-7.5v-26.686l9.691-9.525.592 22.714c-.187 2.11.555 4.453 2.156 6.083 1.468 1.496 3.451 2.413 5.393 2.413h.047c2.262.038 4.299-1.509 5.524-2.938l15.596-15.495v12.19l-18.637 18.805c-2.929 2.929-2.845 7.678.084 10.606 1.464 1.464 3.425 2.196 5.344 2.196s3.693-.732 5.158-2.197l8.051-8.196v13.786l-18.637 18.805c-2.929 2.929-2.845 7.678.084 10.606 1.464 1.464 3.425 2.196 5.344 2.196s3.693-.732 5.158-2.197l8.051-8.196v11.03c0 4.143 3.357 7.5 7.5 7.5s7.5-3.357 7.5-7.5v-11.732l9.45 8.986c1.457 1.41 3.42 2.111 5.299 2.111 1.96 0 3.961-.764 5.431-2.283 2.881-2.977 2.658-7.725-.318-10.605l-19.862-19.086v-13.919l9.512 8.842c1.45 1.372 3.386 2.052 5.237 2.052 1.989 0 4.015-.786 5.491-2.346 2.847-3.009 2.569-7.756-.44-10.602l-19.8-18.595V209.23l17.333 16.332c1.901 1.648 3.724 2.938 6.243 2.938h.052c4.118 0 7.471-3.422 7.499-7.547l.166-24.548 9.645 9.645-.749 27.046a7.499 7.499 0 0 0 7.501 7.708 7.5 7.5 0 0 0 7.493-7.292l.356-12.86 9.845 9.845-.448 27.408c-.067 4.142 3.235 7.595 7.377 7.595h.124c4.086 0 7.431-3.147 7.497-7.246l.212-12.995 7.94 7.94a7.481 7.481 0 0 0 5.304 2.196 7.5 7.5 0 0 0 5.304-12.803l-7.092-7.092h11.73c4.143 0 7.5-3.357 7.5-7.5s-3.357-7.5-7.5-7.5h-26.73l-10-10h11.73c4.143 0 7.5-3.357 7.5-7.5s-3.357-7.5-7.5-7.5h-26.73l-9.082-9.082 22.994-1.004c1.944-.081 3.911-.969 5.123-2.152a7.5 7.5 0 0 0 .127-10.605L210.157 156.5h12.101l18.805 18.804a7.477 7.477 0 0 0 5.303 2.196 7.498 7.498 0 0 0 5.303-12.803l-8.196-8.196h13.786l18.805 18.804a7.477 7.477 0 0 0 5.303 2.196 7.498 7.498 0 0 0 5.303-12.803l-8.196-8.196H289.5c4.143 0 7.5-3.357 7.5-7.5s-3.357-7.502-7.5-7.502zm-174.153-16.207 16.207 16.207h-23.286l-14.64-15.4 21.719-.807zm-.34 46.8-21.232-.552 14.468-15.041H130.6l-15.593 15.593zm25.16 16.955-14.174 14.079-.543-20.512 14.718-14.801v21.234zm0-59.817-15.282-15.448.43-20.098 14.851 14.439v21.107zm15-20.771 16.731-15.002.147 21.346-16.878 16.795V108.46zm16.078 95.087-16.078-14.811v-23.291l16.144 16.061-.066 22.041zm12.056-31.516L167.77 156.5h21.424l14.304 14.649-20.197.882zm5.764-30.531h-22.252l16.104-16.104 20.941.058-14.793 16.046z"/></svg>
